<?xml version="1.0" encoding="UTF-8" standalone="no"?><!-- Generator: Gravit.io --><svg xmlns="http://www.w3.org/2000/svg" xmlns:xlink="http://www.w3.org/1999/xlink" style="isolation:isolate" viewBox="1550.23 952.621 1269.366 232.339" width="1269.366pt" height="232.339pt"><g opacity="0.26"><path d=" M 2799.04 1059.19 C 2790.41 1059.19 2783.41 1052.19 2783.41 1043.55 C 2783.41 1034.93 2790.41 1027.93 2799.04 1027.93 C 2807.67 1027.93 2814.67 1034.93 2814.67 1043.55 C 2814.67 1052.19 2807.67 1059.19 2799.04 1059.19 L 2799.04 1059.19 L 2799.04 1059.19 Z  M 1586.64 1175.26 L 1586.64 1175.26 C 1591.62 1175.26 1596.23 1172.61 1598.73 1168.29 L 1624.19 1124.3 C 1625.96 1121.25 1629.2 1119.36 1632.73 1119.32 L 1652.12 1119.14 C 1656.95 1119.1 1661.71 1117.96 1666.04 1115.82 L 1668.85 1114.43 C 1671.1 1113.32 1671.1 1110.12 1668.85 1109.01 L 1666.04 1107.62 C 1661.71 1105.48 1656.95 1104.35 1652.12 1104.3 L 1632.73 1104.12 C 1629.2 1104.09 1625.96 1102.2 1624.19 1099.14 L 1598.73 1055.15 C 1596.23 1050.84 1591.62 1048.18 1586.64 1048.18 L 1586.64 1048.18 C 1597.02 1067.33 1602.94 1091.23 1605.11 1101.21 C 1605.4 1102.58 1604.35 1103.86 1602.96 1103.84 L 1602.96 1103.84 L 1601.91 1099.76 C 1601.39 1097.77 1599.43 1096.51 1597.41 1096.88 L 1591.98 1097.86 C 1591.24 1098 1590.57 1098.37 1590.07 1098.92 L 1590.07 1098.92 C 1589.55 1099.5 1588.85 1099.88 1588.08 1100 L 1586.12 1100.3 L 1588.31 1100.69 C 1588.99 1100.81 1589.62 1101.13 1590.11 1101.62 L 1590.93 1102.44 L 1592.28 1103.75 L 1588.17 1103.71 C 1585.53 1103.68 1582.89 1103.99 1580.33 1104.63 L 1567.44 1107.85 L 1562.28 1093.94 C 1561.17 1090.96 1558.16 1089.13 1555 1089.53 L 1550.23 1090.13 L 1557.75 1110.26 L 1554.16 1111.16 C 1553.57 1111.3 1553.57 1112.14 1554.16 1112.29 L 1557.75 1113.18 L 1550.23 1133.31 L 1555.04 1133.92 C 1558.18 1134.31 1561.18 1132.51 1562.3 1129.56 L 1567.58 1115.63 L 1580.33 1118.81 C 1582.89 1119.45 1585.53 1119.76 1588.17 1119.74 L 1592.28 1119.7 L 1590.93 1121 L 1590.11 1121.82 C 1589.62 1122.31 1588.99 1122.64 1588.31 1122.76 L 1586.12 1123.14 L 1588.08 1123.44 C 1588.85 1123.56 1589.55 1123.94 1590.07 1124.52 L 1590.07 1124.52 C 1590.57 1125.07 1591.24 1125.45 1591.98 1125.58 L 1597.41 1126.56 C 1599.43 1126.93 1601.39 1125.67 1601.91 1123.68 L 1602.96 1119.6 L 1602.96 1119.6 C 1604.35 1119.59 1605.4 1120.87 1605.11 1122.23 C 1602.94 1132.21 1597.02 1156.12 1586.64 1175.26 L 1586.64 1175.26 Z  M 2799.04 1023.95 C 2752.78 1023.95 2799.04 1079.66 2799.04 1079.66 C 2799.04 1079.66 2845.29 1023.95 2799.04 1023.95 L 2799.04 1023.95 L 2799.04 1023.95 Z  M 1926.42 963.346 C 1925.26 963.346 1924.15 962.661 1923.66 961.521 C 1923.01 959.996 1923.72 958.234 1925.25 957.585 C 1931.91 954.745 1938.7 953.078 1945.43 952.63 C 1947.06 952.503 1948.51 953.769 1948.62 955.423 C 1948.73 957.077 1947.48 958.506 1945.82 958.616 C 1939.77 959.02 1933.64 960.53 1927.6 963.105 C 1927.21 963.268 1926.82 963.346 1926.42 963.346 L 1926.42 963.346 Z  M 1981.8 971.895 C 1981.04 971.895 1980.28 971.608 1979.7 971.034 C 1977.38 968.758 1974.8 966.721 1972.02 964.982 C 1969.53 963.42 1966.87 962.121 1964.13 961.119 C 1962.58 960.549 1961.78 958.826 1962.35 957.27 C 1962.92 955.714 1964.64 954.917 1966.2 955.484 C 1969.33 956.629 1972.36 958.114 1975.2 959.896 C 1978.35 961.867 1981.28 964.174 1983.9 966.756 C 1985.09 967.917 1985.1 969.817 1983.94 970.998 C 1983.35 971.596 1982.58 971.895 1981.8 971.895 L 1981.8 971.895 Z  M 1896.04 988.189 C 1895.46 988.189 1894.86 988.016 1894.34 987.656 C 1892.98 986.714 1892.64 984.845 1893.58 983.482 C 1897.47 977.853 1902.19 972.752 1907.6 968.321 C 1908.88 967.271 1910.77 967.461 1911.82 968.742 C 1912.87 970.024 1912.68 971.914 1911.4 972.964 C 1906.42 977.04 1902.09 981.727 1898.51 986.894 C 1897.93 987.737 1897 988.189 1896.04 988.189 L 1896.04 988.189 Z  M 1997.58 1007.48 C 1996.05 1007.48 1994.74 1006.31 1994.6 1004.76 C 1993.98 998.177 1992.46 992.014 1990.08 986.44 C 1989.43 984.917 1990.14 983.154 1991.66 982.502 C 1993.18 981.85 1994.95 982.558 1995.6 984.081 C 1998.23 990.229 1999.9 996.998 2000.57 1004.2 C 2000.73 1005.85 1999.51 1007.31 1997.87 1007.47 C 1997.77 1007.48 1997.68 1007.48 1997.58 1007.48 L 1997.58 1007.48 Z  M 2354.21 1014.72 C 2352.66 1014.72 2351.34 1013.53 2351.22 1011.96 C 2351.08 1010.31 2352.31 1008.86 2353.97 1008.73 C 2358.87 1008.33 2363.76 1008.13 2368.5 1008.13 C 2368.51 1008.13 2368.52 1008.13 2368.54 1008.13 C 2370.41 1008.13 2372.31 1008.16 2374.17 1008.22 C 2375.82 1008.28 2377.12 1009.67 2377.06 1011.32 C 2377.01 1012.98 2375.63 1014.27 2373.96 1014.22 C 2372.16 1014.16 2370.33 1014.14 2368.5 1014.13 C 2363.92 1014.13 2359.19 1014.32 2354.45 1014.71 C 2354.37 1014.71 2354.29 1014.72 2354.21 1014.72 L 2354.21 1014.72 Z  M 2413.12 1020.87 C 2412.81 1020.87 2412.5 1020.82 2412.19 1020.72 C 2406.04 1018.72 2399.7 1017.17 2393.33 1016.1 C 2391.7 1015.83 2390.6 1014.28 2390.87 1012.65 C 2391.14 1011.02 2392.7 1009.91 2394.32 1010.19 C 2400.98 1011.3 2407.62 1012.92 2414.04 1015.01 C 2415.62 1015.53 2416.48 1017.22 2415.97 1018.8 C 2415.56 1020.06 2414.38 1020.87 2413.12 1020.87 L 2413.12 1020.87 Z  M 2315.12 1021.66 C 2313.79 1021.66 2312.58 1020.77 2312.22 1019.43 C 2311.8 1017.83 2312.75 1016.18 2314.35 1015.76 C 2321 1013.99 2327.61 1012.51 2333.98 1011.36 C 2335.61 1011.06 2337.17 1012.15 2337.46 1013.78 C 2337.76 1015.41 2336.67 1016.97 2335.04 1017.26 C 2328.83 1018.38 2322.39 1019.83 2315.89 1021.56 C 2315.64 1021.62 2315.38 1021.66 2315.12 1021.66 L 2315.12 1021.66 Z  M 1885.05 1025.65 C 1883.43 1025.65 1882.1 1024.36 1882.06 1022.73 C 1882.04 1022.06 1882.03 1021.38 1882.03 1020.7 C 1882.03 1017.66 1882.22 1014.58 1882.59 1011.57 C 1882.98 1008.42 1883.64 1005.26 1884.56 1002.15 C 1885.03 1000.56 1886.7 999.657 1888.28 1000.13 C 1889.87 1000.6 1890.78 1002.26 1890.31 1003.85 C 1889.49 1006.64 1888.89 1009.48 1888.54 1012.3 C 1888.2 1015.07 1888.03 1017.9 1888.03 1020.7 C 1888.03 1021.33 1888.04 1021.95 1888.05 1022.57 C 1888.1 1024.23 1886.79 1025.61 1885.14 1025.65 C 1885.11 1025.65 1885.08 1025.65 1885.05 1025.65 L 1885.05 1025.65 Z  M 2277.49 1034.37 C 2276.3 1034.37 2275.17 1033.66 2274.7 1032.49 C 2274.08 1030.95 2274.83 1029.2 2276.36 1028.58 L 2278.1 1027.89 C 2283.87 1025.59 2289.6 1023.48 2295.14 1021.59 C 2296.71 1021.06 2298.42 1021.9 2298.95 1023.47 C 2299.48 1025.04 2298.64 1026.74 2297.08 1027.27 C 2291.63 1029.13 2285.99 1031.21 2280.32 1033.46 L 2278.6 1034.15 C 2278.24 1034.3 2277.86 1034.37 2277.49 1034.37 L 2277.49 1034.37 Z  M 2448.43 1038.77 C 2447.81 1038.77 2447.19 1038.58 2446.66 1038.19 C 2441.54 1034.44 2435.98 1031.05 2430.13 1028.1 C 2428.65 1027.35 2428.06 1025.55 2428.8 1024.07 C 2429.55 1022.59 2431.35 1022 2432.83 1022.74 C 2438.97 1025.84 2444.81 1029.41 2450.2 1033.35 C 2451.54 1034.32 2451.83 1036.2 2450.85 1037.54 C 2450.26 1038.34 2449.35 1038.77 2448.43 1038.77 L 2448.43 1038.77 Z  M 1991.42 1046.36 C 1991.03 1046.36 1990.64 1046.29 1990.26 1046.13 C 1988.73 1045.49 1988.01 1043.73 1988.65 1042.2 C 1991.11 1036.31 1992.88 1030.13 1993.9 1023.81 C 1994.16 1022.18 1995.71 1021.07 1997.34 1021.33 C 1998.97 1021.59 2000.09 1023.13 1999.82 1024.77 C 1998.73 1031.55 1996.83 1038.19 1994.18 1044.52 C 1993.7 1045.67 1992.59 1046.36 1991.42 1046.36 L 1991.42 1046.36 Z  M 2540.45 1046.71 C 2538.83 1046.71 2537.5 1045.42 2537.45 1043.79 C 2537.41 1042.13 2538.71 1040.75 2540.37 1040.71 C 2547 1040.53 2553.7 1040.46 2560.34 1040.49 C 2562 1040.5 2563.33 1041.85 2563.33 1043.51 C 2563.32 1045.16 2561.97 1046.49 2560.33 1046.49 C 2560.32 1046.49 2560.31 1046.49 2560.31 1046.49 C 2553.74 1046.46 2547.1 1046.53 2540.53 1046.71 C 2540.51 1046.71 2540.48 1046.71 2540.45 1046.71 L 2540.45 1046.71 Z  M 2600.04 1047.99 C 2599.97 1047.99 2599.9 1047.99 2599.83 1047.98 C 2593.27 1047.52 2586.63 1047.16 2580.08 1046.92 C 2578.42 1046.85 2577.13 1045.46 2577.2 1043.8 C 2577.26 1042.15 2578.62 1040.89 2580.31 1040.92 C 2586.92 1041.17 2593.63 1041.53 2600.25 1042 C 2601.9 1042.11 2603.15 1043.55 2603.03 1045.2 C 2602.92 1046.78 2601.6 1047.99 2600.04 1047.99 L 2600.04 1047.99 Z  M 2500.78 1049.09 C 2499.25 1049.09 2497.94 1047.92 2497.8 1046.37 C 2497.64 1044.72 2498.86 1043.25 2500.5 1043.1 C 2507.09 1042.49 2513.79 1041.98 2520.42 1041.58 C 2522.08 1041.47 2523.49 1042.74 2523.59 1044.39 C 2523.69 1046.05 2522.43 1047.47 2520.78 1047.57 C 2514.21 1047.96 2507.58 1048.47 2501.06 1049.08 C 2500.97 1049.08 2500.87 1049.09 2500.78 1049.09 L 2500.78 1049.09 Z  M 2241.18 1050.52 C 2240.05 1050.52 2238.98 1049.89 2238.47 1048.81 C 2237.75 1047.32 2238.39 1045.53 2239.88 1044.81 C 2246.57 1041.63 2252.49 1038.88 2257.98 1036.42 C 2259.49 1035.75 2261.26 1036.42 2261.94 1037.94 C 2262.62 1039.45 2261.94 1041.22 2260.43 1041.9 C 2254.99 1044.34 2249.11 1047.06 2242.46 1050.23 C 2242.05 1050.43 2241.61 1050.52 2241.18 1050.52 L 2241.18 1050.52 Z  M 2639.58 1052.05 C 2639.44 1052.05 2639.3 1052.04 2639.17 1052.02 C 2632.68 1051.14 2626.07 1050.36 2619.53 1049.68 C 2617.88 1049.51 2616.68 1048.04 2616.85 1046.39 C 2617.02 1044.74 2618.49 1043.54 2620.14 1043.71 C 2626.75 1044.39 2633.42 1045.19 2639.97 1046.08 C 2641.62 1046.3 2642.77 1047.81 2642.54 1049.45 C 2642.34 1050.96 2641.05 1052.05 2639.58 1052.05 L 2639.58 1052.05 Z  M 2678.76 1058.65 C 2678.57 1058.65 2678.37 1058.63 2678.17 1058.59 C 2671.74 1057.3 2665.2 1056.08 2658.72 1054.99 C 2657.09 1054.72 2655.99 1053.17 2656.26 1051.54 C 2656.54 1049.9 2658.09 1048.8 2659.72 1049.08 C 2666.26 1050.18 2672.86 1051.4 2679.35 1052.71 C 2680.98 1053.04 2682.03 1054.62 2681.7 1056.25 C 2681.41 1057.67 2680.16 1058.65 2678.76 1058.65 L 2678.76 1058.65 Z  M 1895.99 1063.45 C 1894.94 1063.45 1893.92 1062.9 1893.37 1061.93 C 1889.92 1055.82 1887.22 1049.47 1885.33 1043.06 C 1884.86 1041.47 1885.77 1039.81 1887.35 1039.34 C 1888.94 1038.86 1890.61 1039.78 1891.08 1041.36 C 1892.84 1047.34 1895.37 1053.26 1898.6 1058.98 C 1899.41 1060.42 1898.9 1062.25 1897.46 1063.07 C 1896.99 1063.33 1896.49 1063.45 1895.99 1063.45 L 1895.99 1063.45 Z  M 2422.81 1063.55 C 2421.58 1063.55 2420.44 1062.79 2419.99 1061.58 C 2419.42 1060.02 2420.22 1058.3 2421.78 1057.73 C 2427.74 1055.55 2434.08 1053.68 2441.16 1052 C 2442.77 1051.61 2444.39 1052.61 2444.78 1054.22 C 2445.16 1055.83 2444.16 1057.45 2442.55 1057.83 C 2435.7 1059.46 2429.58 1061.27 2423.84 1063.37 C 2423.5 1063.49 2423.15 1063.55 2422.81 1063.55 L 2422.81 1063.55 Z  M 2475.42 1067.6 C 2474.41 1067.6 2473.43 1067.09 2472.86 1066.17 C 2470.2 1061.85 2467.13 1057.68 2463.7 1053.75 C 2463.08 1053.85 2462.46 1053.95 2461.84 1054.05 C 2460.22 1054.31 2458.66 1053.21 2458.4 1051.57 C 2458.16 1050.1 2459.03 1048.7 2460.4 1048.24 C 2460.52 1047.67 2460.81 1047.13 2461.27 1046.69 C 2462.48 1045.55 2464.38 1045.61 2465.51 1046.82 C 2465.67 1046.98 2465.83 1047.15 2465.98 1047.32 C 2466.27 1047.28 2466.56 1047.23 2466.84 1047.19 C 2471.41 1046.5 2476.06 1045.86 2480.65 1045.28 C 2482.28 1045.08 2483.79 1046.24 2484 1047.88 C 2484.21 1049.52 2483.05 1051.02 2481.4 1051.23 C 2477.83 1051.68 2474.22 1052.17 2470.65 1052.69 C 2473.33 1056.01 2475.79 1059.47 2477.97 1063.03 C 2478.84 1064.44 2478.4 1066.29 2476.99 1067.16 C 2476.5 1067.46 2475.96 1067.6 2475.42 1067.6 L 2475.42 1067.6 Z  M 2717.44 1067.78 C 2717.18 1067.78 2716.92 1067.75 2716.66 1067.68 C 2710.33 1065.96 2703.88 1064.33 2697.49 1062.82 C 2695.88 1062.44 2694.88 1060.83 2695.26 1059.21 C 2695.64 1057.6 2697.25 1056.6 2698.87 1056.98 C 2705.32 1058.51 2711.84 1060.16 2718.23 1061.88 C 2719.83 1062.32 2720.77 1063.96 2720.34 1065.56 C 2719.98 1066.9 2718.77 1067.78 2717.44 1067.78 L 2717.44 1067.78 Z  M 2205.4 1067.84 C 2204.28 1067.84 2203.21 1067.21 2202.69 1066.14 C 2201.97 1064.64 2202.6 1062.85 2204.1 1062.13 C 2209.58 1059.5 2215.06 1056.84 2220.53 1054.17 L 2221.97 1053.47 C 2223.45 1052.75 2225.25 1053.37 2225.98 1054.86 C 2226.7 1056.35 2226.08 1058.14 2224.59 1058.87 L 2223.15 1059.57 C 2217.67 1062.24 2212.19 1064.91 2206.69 1067.54 C 2206.27 1067.75 2205.83 1067.84 2205.4 1067.84 L 2205.4 1067.84 Z  M 1967.64 1077.68 C 1966.78 1077.68 1965.92 1077.3 1965.32 1076.58 C 1964.27 1075.3 1964.46 1073.41 1965.73 1072.36 C 1968.88 1069.77 1971.87 1066.99 1974.62 1064.09 C 1976.2 1062.41 1977.73 1060.61 1979.17 1058.73 C 1980.17 1057.41 1982.05 1057.16 1983.37 1058.16 C 1984.69 1059.17 1984.94 1061.05 1983.94 1062.37 C 1982.38 1064.41 1980.71 1066.38 1978.98 1068.21 C 1976.06 1071.3 1972.88 1074.25 1969.54 1077 C 1968.99 1077.45 1968.31 1077.68 1967.64 1077.68 L 1967.64 1077.68 Z  M 2755.44 1079.41 C 2755.12 1079.41 2754.79 1079.35 2754.47 1079.24 C 2748.26 1077.12 2741.93 1075.07 2735.66 1073.15 C 2734.08 1072.67 2733.18 1070.99 2733.67 1069.4 C 2734.15 1067.82 2735.83 1066.93 2737.42 1067.41 C 2743.75 1069.35 2750.14 1071.42 2756.42 1073.57 C 2757.98 1074.1 2758.82 1075.81 2758.28 1077.38 C 2757.86 1078.62 2756.69 1079.41 2755.44 1079.41 L 2755.44 1079.41 Z  M 2388.7 1083.44 C 2387.89 1083.44 2387.08 1083.12 2386.49 1082.47 C 2385.37 1081.26 2385.45 1079.36 2386.66 1078.24 C 2389.66 1075.47 2392.86 1072.92 2396.19 1070.65 C 2398.45 1069.1 2400.83 1067.61 2403.28 1066.22 C 2404.72 1065.4 2406.55 1065.9 2407.37 1067.34 C 2408.19 1068.78 2407.69 1070.61 2406.25 1071.43 C 2403.95 1072.74 2401.7 1074.15 2399.57 1075.6 C 2396.49 1077.71 2393.52 1080.08 2390.73 1082.65 C 2390.15 1083.18 2389.42 1083.44 2388.7 1083.44 L 2388.7 1083.44 Z  M 2169.16 1084.17 C 2167.98 1084.17 2166.86 1083.47 2166.39 1082.31 C 2165.76 1080.78 2166.49 1079.02 2168.02 1078.39 C 2170.28 1077.46 2172.53 1076.52 2174.78 1075.55 C 2178.44 1073.98 2182.17 1072.34 2186.16 1070.53 C 2187.67 1069.85 2189.44 1070.51 2190.13 1072.02 C 2190.81 1073.53 2190.14 1075.31 2188.63 1075.99 C 2184.61 1077.82 2180.85 1079.48 2177.14 1081.07 C 2174.87 1082.04 2172.59 1083 2170.3 1083.94 C 2169.93 1084.09 2169.54 1084.17 2169.16 1084.17 L 2169.16 1084.17 Z  M 1921.68 1093.47 C 1921.02 1093.47 1920.35 1093.25 1919.8 1092.81 C 1914.47 1088.51 1909.54 1083.74 1905.14 1078.63 C 1904.06 1077.37 1904.2 1075.48 1905.46 1074.39 C 1906.71 1073.31 1908.61 1073.45 1909.69 1074.71 C 1913.85 1079.55 1918.52 1084.07 1923.56 1088.14 C 1924.85 1089.18 1925.06 1091.06 1924.02 1092.35 C 1923.42 1093.09 1922.55 1093.47 1921.68 1093.47 L 1921.68 1093.47 Z  M 1933.24 1097.24 C 1932.04 1097.24 1930.91 1096.52 1930.44 1095.33 C 1929.85 1093.78 1930.61 1092.04 1932.16 1091.45 C 1938.45 1089.01 1944.37 1086.24 1949.76 1083.22 C 1951.21 1082.4 1953.04 1082.92 1953.85 1084.37 C 1954.66 1085.81 1954.14 1087.64 1952.7 1088.45 C 1947.06 1091.61 1940.88 1094.5 1934.33 1097.04 C 1933.97 1097.18 1933.6 1097.24 1933.24 1097.24 L 1933.24 1097.24 Z  M 2131.87 1097.9 C 2130.6 1097.9 2129.43 1097.09 2129.02 1095.82 C 2128.5 1094.25 2129.36 1092.55 2130.94 1092.04 C 2137.2 1090 2143.48 1087.83 2149.61 1085.57 C 2151.16 1085 2152.89 1085.79 2153.46 1087.35 C 2154.03 1088.9 2153.24 1090.63 2151.68 1091.2 C 2145.48 1093.48 2139.13 1095.69 2132.8 1097.75 C 2132.49 1097.85 2132.18 1097.9 2131.87 1097.9 L 2131.87 1097.9 Z  M 2487.68 1105 C 2486.13 1105 2484.81 1103.81 2484.69 1102.24 C 2484.18 1095.77 2482.93 1089.46 2480.98 1083.48 C 2480.46 1081.91 2481.32 1080.21 2482.9 1079.7 C 2484.47 1079.18 2486.17 1080.05 2486.68 1081.62 C 2488.78 1088.05 2490.12 1094.83 2490.67 1101.77 C 2490.8 1103.42 2489.57 1104.86 2487.92 1104.99 C 2487.83 1105 2487.75 1105 2487.68 1105 L 2487.68 1105 Z  M 1894.95 1107.74 C 1893.53 1107.74 1892.27 1106.73 1892 1105.29 C 1891.7 1103.66 1892.77 1102.09 1894.4 1101.79 C 1901.29 1100.5 1907.55 1099.08 1913.56 1097.47 C 1915.16 1097.04 1916.81 1097.99 1917.24 1099.59 C 1917.67 1101.19 1916.72 1102.83 1915.12 1103.26 C 1908.96 1104.92 1902.54 1106.37 1895.5 1107.68 C 1895.32 1107.72 1895.13 1107.74 1894.95 1107.74 L 1894.95 1107.74 Z  M 2093.64 1108.76 C 2092.29 1108.76 2091.06 1107.84 2090.73 1106.46 C 2090.33 1104.85 2091.32 1103.23 2092.93 1102.84 C 2099.3 1101.29 2105.73 1099.6 2112.04 1097.8 C 2113.64 1097.35 2115.29 1098.28 2115.74 1099.87 C 2116.2 1101.46 2115.27 1103.12 2113.68 1103.57 C 2107.29 1105.39 2100.79 1107.1 2094.35 1108.67 C 2094.11 1108.73 2093.87 1108.76 2093.64 1108.76 L 2093.64 1108.76 Z  M 1956.4 1112.4 C 1956.08 1112.4 1955.75 1112.35 1955.43 1112.24 C 1952.21 1111.14 1949.02 1109.92 1945.93 1108.6 C 1942.85 1107.28 1939.76 1105.78 1936.75 1104.14 C 1935.29 1103.35 1934.76 1101.53 1935.55 1100.07 C 1936.34 1098.62 1938.16 1098.08 1939.62 1098.87 C 1942.46 1100.42 1945.38 1101.84 1948.29 1103.08 C 1951.24 1104.34 1954.29 1105.51 1957.37 1106.56 C 1958.93 1107.09 1959.77 1108.8 1959.24 1110.37 C 1958.81 1111.61 1957.65 1112.4 1956.4 1112.4 L 1956.4 1112.4 Z  M 1855.58 1113.17 C 1854.06 1113.17 1852.76 1112.02 1852.6 1110.48 C 1852.43 1108.83 1853.63 1107.35 1855.27 1107.18 C 1859.78 1106.71 1864.34 1106.19 1868.83 1105.65 C 1870.86 1105.4 1872.89 1105.14 1874.92 1104.87 C 1876.56 1104.66 1878.08 1105.81 1878.29 1107.45 C 1878.51 1109.09 1877.36 1110.6 1875.72 1110.82 C 1873.66 1111.09 1871.6 1111.36 1869.56 1111.6 C 1865.03 1112.15 1860.44 1112.67 1855.9 1113.15 C 1855.79 1113.16 1855.69 1113.17 1855.58 1113.17 L 1855.58 1113.17 Z  M 1815.96 1116.32 C 1814.38 1116.32 1813.06 1115.08 1812.97 1113.48 C 1812.88 1111.83 1814.15 1110.41 1815.8 1110.32 C 1822.39 1109.96 1829.04 1109.51 1835.56 1109 C 1837.23 1108.86 1838.65 1110.1 1838.79 1111.75 C 1838.92 1113.4 1837.68 1114.84 1836.03 1114.98 C 1829.46 1115.5 1822.77 1115.95 1816.13 1116.31 C 1816.07 1116.32 1816.02 1116.32 1815.96 1116.32 L 1815.96 1116.32 Z  M 2367.55 1116.53 C 2367.28 1116.53 2367 1116.5 2366.72 1116.42 C 2365.13 1115.95 2364.21 1114.29 2364.67 1112.7 C 2366.53 1106.26 2369.46 1099.95 2373.37 1093.94 C 2374.27 1092.55 2376.13 1092.15 2377.52 1093.05 C 2378.91 1093.96 2379.3 1095.82 2378.4 1097.21 C 2374.81 1102.72 2372.13 1108.5 2370.43 1114.37 C 2370.05 1115.68 2368.85 1116.53 2367.55 1116.53 L 2367.55 1116.53 Z  M 2054.69 1116.66 C 2053.24 1116.66 2051.97 1115.6 2051.73 1114.13 C 2051.47 1112.49 2052.59 1110.95 2054.22 1110.69 C 2057.6 1110.16 2061.09 1109.55 2064.61 1108.9 C 2067.59 1108.35 2070.63 1107.76 2073.65 1107.15 C 2075.28 1106.82 2076.86 1107.87 2077.19 1109.49 C 2077.52 1111.11 2076.47 1112.7 2074.84 1113.03 C 2071.79 1113.65 2068.72 1114.24 2065.7 1114.8 C 2062.13 1115.46 2058.59 1116.07 2055.17 1116.62 C 2055.01 1116.64 2054.85 1116.66 2054.69 1116.66 L 2054.69 1116.66 Z  M 1756.37 1117.37 C 1756.35 1117.37 1756.33 1117.37 1756.31 1117.37 C 1749.68 1117.24 1742.97 1117.03 1736.37 1116.74 C 1734.71 1116.67 1733.43 1115.27 1733.5 1113.61 C 1733.58 1111.96 1734.96 1110.67 1736.63 1110.75 C 1743.18 1111.04 1749.84 1111.25 1756.42 1111.37 C 1758.08 1111.41 1759.4 1112.77 1759.36 1114.43 C 1759.33 1116.07 1758 1117.37 1756.37 1117.37 L 1756.37 1117.37 Z  M 1776.24 1117.51 C 1774.59 1117.51 1773.25 1116.18 1773.24 1114.53 C 1773.23 1112.87 1774.57 1111.52 1776.22 1111.51 C 1782.8 1111.47 1789.47 1111.36 1796.02 1111.16 C 1797.64 1111.12 1799.06 1112.41 1799.11 1114.07 C 1799.16 1115.72 1797.86 1117.11 1796.2 1117.16 C 1789.6 1117.36 1782.89 1117.47 1776.25 1117.51 C 1776.25 1117.51 1776.24 1117.51 1776.24 1117.51 L 1776.24 1117.51 Z  M 1995.3 1120.01 C 1995.23 1120.01 1995.16 1120.01 1995.08 1120.01 C 1988.17 1119.5 1981.43 1118.63 1975.04 1117.4 C 1973.41 1117.09 1972.34 1115.52 1972.66 1113.89 C 1972.97 1112.26 1974.55 1111.2 1976.17 1111.51 C 1982.33 1112.69 1988.84 1113.54 1995.52 1114.02 C 1997.17 1114.14 1998.41 1115.58 1998.29 1117.23 C 1998.18 1118.81 1996.86 1120.01 1995.3 1120.01 L 1995.3 1120.01 Z  M 2015.16 1120.47 C 2013.53 1120.47 2012.2 1119.17 2012.16 1117.54 C 2012.12 1115.88 2013.43 1114.51 2015.09 1114.47 C 2021.34 1114.32 2027.93 1113.91 2034.7 1113.24 C 2036.34 1113.08 2037.81 1114.28 2037.98 1115.93 C 2038.14 1117.58 2036.94 1119.05 2035.29 1119.21 C 2028.38 1119.9 2021.63 1120.32 2015.23 1120.47 C 2015.21 1120.47 2015.18 1120.47 2015.16 1120.47 L 2015.16 1120.47 Z  M 2481.84 1143.97 C 2481.47 1143.97 2481.09 1143.9 2480.72 1143.76 C 2479.19 1143.14 2478.44 1141.39 2479.06 1139.85 C 2481.41 1134.02 2483.09 1127.81 2484.04 1121.39 C 2484.28 1119.75 2485.81 1118.61 2487.44 1118.86 C 2489.08 1119.1 2490.21 1120.63 2489.97 1122.27 C 2488.95 1129.15 2487.15 1135.83 2484.63 1142.09 C 2484.16 1143.26 2483.03 1143.97 2481.84 1143.97 L 2481.84 1143.97 Z  M 2371.11 1155.07 C 2370.06 1155.07 2369.03 1154.51 2368.48 1153.52 C 2365.47 1148.07 2363.54 1142.22 2362.75 1136.13 C 2362.63 1135.23 2362.53 1134.32 2362.46 1133.42 C 2362.33 1131.77 2363.56 1130.32 2365.21 1130.19 C 2366.84 1130.05 2368.31 1131.29 2368.44 1132.94 C 2368.51 1133.75 2368.59 1134.55 2368.7 1135.35 C 2369.4 1140.69 2371.09 1145.83 2373.74 1150.61 C 2374.54 1152.06 2374.01 1153.89 2372.56 1154.69 C 2372.1 1154.94 2371.6 1155.07 2371.11 1155.07 L 2371.11 1155.07 Z  M 2457.86 1174.97 C 2456.92 1174.97 2455.99 1174.53 2455.4 1173.69 C 2454.45 1172.33 2454.78 1170.46 2456.14 1169.51 C 2461.23 1165.96 2465.8 1161.55 2469.72 1156.41 C 2470.72 1155.09 2472.6 1154.84 2473.92 1155.84 C 2475.24 1156.85 2475.49 1158.73 2474.49 1160.05 C 2470.19 1165.68 2465.18 1170.52 2459.58 1174.43 C 2459.06 1174.8 2458.46 1174.97 2457.86 1174.97 L 2457.86 1174.97 Z  M 2400.9 1180.2 C 2400.54 1180.2 2400.16 1180.13 2399.8 1179.99 C 2393.19 1177.36 2387.17 1173.83 2381.92 1169.49 C 2380.64 1168.44 2380.46 1166.55 2381.51 1165.27 C 2382.57 1163.99 2384.46 1163.81 2385.74 1164.87 C 2390.51 1168.8 2395.98 1172.01 2402.01 1174.41 C 2403.55 1175.02 2404.3 1176.77 2403.69 1178.3 C 2403.22 1179.48 2402.1 1180.2 2400.9 1180.2 L 2400.9 1180.2 Z  M 2425.5 1184.96 C 2423.65 1184.96 2421.78 1184.88 2419.93 1184.73 C 2418.28 1184.59 2417.06 1183.14 2417.19 1181.49 C 2417.33 1179.84 2418.79 1178.59 2420.43 1178.75 C 2426.83 1179.28 2433.25 1178.79 2439.18 1177.31 C 2440.8 1176.9 2442.42 1177.89 2442.82 1179.49 C 2443.22 1181.1 2442.25 1182.73 2440.64 1183.13 C 2435.79 1184.34 2430.7 1184.96 2425.5 1184.96 L 2425.5 1184.96 Z " fill-rule="evenodd" fill="rgb(121,157,112)" fill-opacity="0.41"/></g></svg>