<?xml version="1.0" encoding="UTF-8" standalone="no"?>
<svg
   xmlns:dc="http://purl.org/dc/elements/1.1/"
   xmlns:cc="http://creativecommons.org/ns#"
   xmlns:rdf="http://www.w3.org/1999/02/22-rdf-syntax-ns#"
   xmlns:svg="http://www.w3.org/2000/svg"
   xmlns="http://www.w3.org/2000/svg"
   viewBox="0 0 506.88 506.88"
   height="506.88"
   width="506.88"
   xml:space="preserve"
   id="svg2"
   version="1.1"><metadata
     id="metadata8"><rdf:RDF><cc:Work
         rdf:about=""><dc:format>image/svg+xml</dc:format><dc:type
           rdf:resource="http://purl.org/dc/dcmitype/StillImage" /></cc:Work></rdf:RDF></metadata><defs
     id="defs6" /><g
     transform="matrix(1.3333333,0,0,-1.3333333,0,506.88)"
     id="g10"><g
       transform="scale(0.1)"
       id="g12"><path
         id="path14"
         style="fill:#000000;fill-opacity:1;fill-rule:nonzero;stroke:none"
         d="m 1900.8,3177.11 c 102.47,188.98 208.92,335.1 338.62,438.86 154.69,123.74 338.85,185.62 582.99,185.62 270.25,0 515.05,-109.67 692.29,-286.9 177.23,-177.23 286.91,-422.03 286.91,-692.3 0,-474.91 -235.09,-946.67 -587.71,-1416.82 C 2864.93,940.262 2403.23,478.555 1941.53,16.8633 v 0 c -22.49,-22.4883 -58.97,-22.4883 -81.46,0 l -0.21,0.2148 C 1398.24,478.699 936.621,940.34 587.699,1405.57 235.082,1875.72 0,2347.48 0,2822.39 c 0,270.27 109.672,515.07 286.902,692.3 177.235,177.23 422.032,286.9 692.297,286.9 244.141,0 428.301,-61.88 582.981,-185.62 129.7,-103.76 236.15,-249.88 338.62,-438.86 z m 410.17,349.31 c -135.59,-108.48 -245.67,-273.63 -356.55,-494.65 -5.01,-12.81 -14.6,-23.86 -27.86,-30.5 -28.45,-14.22 -63.05,-2.68 -77.28,25.77 l 0.22,0.1 c -111.67,223.34 -222.33,390.04 -358.87,499.28 -133.32,106.64 -294.77,159.97 -511.431,159.97 -238.461,0 -454.465,-96.76 -610.844,-253.15 -156.382,-156.38 -253.156,-372.38 -253.156,-610.85 0,-446.68 225.723,-896.53 564.305,-1347.98 C 1011.62,1031.59 1454.58,585.359 1900.8,139.043 c 446.23,446.316 889.18,892.547 1221.31,1335.367 338.57,451.45 564.29,901.3 564.29,1347.98 0,238.47 -96.77,454.47 -253.15,610.85 -156.38,156.38 -372.39,253.15 -610.84,253.15 -216.67,0 -378.13,-53.33 -511.44,-159.97" /></g></g></svg>