<?xml version="1.0" encoding="UTF-8" standalone="no"?>
<svg
   xmlns:dc="http://purl.org/dc/elements/1.1/"
   xmlns:cc="http://creativecommons.org/ns#"
   xmlns:rdf="http://www.w3.org/1999/02/22-rdf-syntax-ns#"
   xmlns:svg="http://www.w3.org/2000/svg"
   xmlns="http://www.w3.org/2000/svg"
   viewBox="0 0 2730.6667 2730.6667"
   height="2730.6667"
   width="2730.6667"
   xml:space="preserve"
   id="svg2"
   version="1.1"><metadata
     id="metadata8"><rdf:RDF><cc:Work
         rdf:about=""><dc:format>image/svg+xml</dc:format><dc:type
           rdf:resource="http://purl.org/dc/dcmitype/StillImage" /></cc:Work></rdf:RDF></metadata><defs
     id="defs6" /><g
     transform="matrix(1.3333333,0,0,-1.3333333,0,2730.6667)"
     id="g10"><g
       transform="scale(0.1)"
       id="g12"><path
         id="path14"
         style="fill:#000000;fill-opacity:1;fill-rule:nonzero;stroke:none"
         d="m 10237.8,10467.1 c -66.3,0 -120,-53.7 -120,-120 v -163 c 0,-66.3 53.7,-120 120,-120 66.2,0 120,53.7 120,120 v 163 c 0,66.3 -53.8,120 -120,120" /><path
         id="path16"
         style="fill:#000000;fill-opacity:1;fill-rule:nonzero;stroke:none"
         d="m 10237.8,11236 c -66.3,0 -120,-53.7 -120,-120 v -317.8 c 0,-66.3 53.7,-120 120,-120 66.2,0 120,53.7 120,120 v 317.8 c 0,66.3 -53.8,120 -120,120" /><path
         id="path18"
         style="fill:#000000;fill-opacity:1;fill-rule:nonzero;stroke:none"
         d="m 10237.8,12823.7 c 266.8,0 483.9,-217.1 483.9,-483.9 0,-266.9 -217.1,-484 -483.9,-484 -266.87,0 -483.96,217.1 -483.96,484 0,266.8 217.09,483.9 483.96,483.9 z m 0,-1207.9 c 399.1,0 723.9,324.8 723.9,724 0,399.1 -324.8,723.9 -723.9,723.9 -399.21,0 -723.96,-324.8 -723.96,-723.9 0,-399.2 324.75,-724 723.96,-724" /><path
         id="path20"
         style="fill:#000000;fill-opacity:1;fill-rule:nonzero;stroke:none"
         d="m 7366.83,6655.1 c 42.55,6.7 78.22,35.7 93.49,76 114.15,301.3 407.39,503.7 729.68,503.7 430.09,0 780,-349.9 780,-780 0,-66.3 53.73,-120 120,-120 66.27,0 120,53.7 120,120 0,303.2 -133,575.8 -343.67,762.8 125.78,207.4 352.03,337.2 598.67,337.2 64.1,0 126.99,-8.7 187.62,-25.6 70,-132.3 159.34,-253.4 266.23,-360.2 l 237.95,-238 c 23.5,-23.5 54.2,-35.2 84.9,-35.2 30.7,0 61.4,11.7 84.9,35.2 l 245.9,246 c 92.4,92.3 171.8,195.7 236.9,307.6 94.6,46 199.5,70.2 305.6,70.2 246.6,0 472.9,-129.8 598.7,-337.2 -210.7,-187 -343.7,-459.6 -343.7,-762.8 0,-66.3 53.7,-120 120,-120 66.3,0 120,53.7 120,120 0,430.1 349.9,780 780,780 322.3,0 615.5,-202.4 729.7,-503.7 15.2,-40.3 50.9,-69.3 93.5,-76 380.6,-60.2 656.8,-384.1 656.8,-770.3 0,-257.1 -124.2,-493.9 -334,-640 h -928.2 -4635.6 -928.17 c -209.8,146.1 -334.03,382.9 -334.03,640 0,386.2 276.24,710.1 656.83,770.3 z m 3347.37,1965 c 103.9,-328.3 70,-683.9 -96.5,-987.3 -57.4,-104.7 -129.7,-201 -214.9,-286.1 l -161.1,-161.2 -153.1,153.2 c -100.49,100.4 -182.54,215.6 -243.9,342.2 -141.82,292.8 -164.3,630.8 -64.87,939.2 z m -2163.68,-16.8 c -396.65,670.2 -376.51,1512.7 62.38,2165.8 48.96,-447.6 141.65,-880.9 275.05,-1281.5 C 8683.67,9237 8565.26,8926 8550.52,8603.3 Z m 646.74,5097.7 h 2081.04 c 246.5,-639.3 385,-1392.5 385,-2183.7 0,-691 -106.8,-1370.5 -309.3,-1971.4 H 9121.51 c -202.47,600.9 -309.29,1280.4 -309.29,1971.4 0,791.2 138.51,1544.4 385.04,2183.7 z m 1040.54,1505.1 c 379.9,-292.2 700.3,-731 940.4,-1265.1 H 9297.27 c 240.17,534.1 560.52,972.9 940.53,1265.1 z m 1661.3,-6652.5 c -4.2,330.1 -117,650.6 -319.6,909.9 138.3,409 234,852.6 283.7,1311.3 453.6,-670.2 464.8,-1541.3 35.9,-2221.2 z m -2486.8,306.5 c -73.76,140.8 -141.74,290 -203.14,445.8 h 2057.24 c -61.4,-155.8 -129.4,-305 -203.2,-445.8 z M 15360,5244.8 h -1475.3 c 144.2,178.5 225.3,402.6 225.3,640 0,244.4 -87.7,480.7 -247,665.6 -142.6,165.5 -334.2,280.6 -545.2,328.8 -75.2,164.5 -192.3,305.5 -341.8,410.6 -172.2,121 -374.8,185 -586,185 -173,0 -336.1,-43.4 -479.1,-119.7 -170.3,270.8 -469.9,439.7 -795.9,439.7 -58.6,0 -117,-5.5 -174.2,-16.3 87.8,271.7 96.3,563.3 23.2,841.6 h 170.5 c 4.2,0 8.4,0.2 12.6,0.6 1.9,0.2 3.7,0.5 5.6,0.8 1.9,0.3 3.9,0.5 5.8,0.9 2.4,0.5 4.8,1.1 7.3,1.8 1.3,0.3 2.6,0.6 3.9,1 2.4,0.7 4.9,1.6 7.3,2.5 1.2,0.4 2.4,0.8 3.6,1.3 2.3,0.9 4.4,2 6.5,3 1.4,0.7 2.8,1.3 4.2,2 1.8,1 3.6,2 5.3,3.1 1.7,1 3.3,1.9 4.9,3 1.4,0.9 2.8,1.9 4.1,2.9 1.8,1.3 3.6,2.6 5.4,4 1.1,1 2.2,2 3.4,3 1.7,1.6 3.5,3.1 5.2,4.8 1.2,1.1 2.3,2.4 3.4,3.5 1.5,1.7 3,3.3 4.4,5 1.6,1.9 3.1,3.9 4.6,5.9 0.8,1.1 1.6,2.1 2.4,3.2 2.5,3.7 4.8,7.5 6.9,11.4 86.4,158.4 165.6,327.5 236.6,504.6 117.9,-196.2 181.4,-422.4 181.4,-653.7 0,-34.1 1.1,-67.4 2.3,-99.5 2.8,-80.7 5.4,-157 -11.9,-223 -0.1,-0.2 -0.1,-0.4 -0.1,-0.5 -0.7,-2.9 -1.3,-5.7 -1.8,-8.6 -0.2,-1.1 -0.5,-2.2 -0.7,-3.4 -0.3,-2 -0.4,-4.1 -0.6,-6.2 -1.4,-13.4 -0.5,-26.6 2.5,-39.2 0,-0.3 0.1,-0.6 0.1,-0.8 0.5,-2.1 1.2,-4.1 1.8,-6.1 0.5,-1.7 1,-3.5 1.6,-5.3 0.2,-0.5 0.5,-1.1 0.7,-1.7 4.3,-11.7 10.4,-22.8 18.4,-32.9 1.4,-1.8 2.8,-3.6 4.4,-5.4 0.6,-0.7 1.4,-1.4 2.1,-2.1 2.1,-2.3 4.2,-4.5 6.4,-6.5 0.1,-0.2 0.2,-0.3 0.3,-0.4 0.8,-0.7 1.6,-1.3 2.4,-1.9 2,-1.8 4.1,-3.5 6.2,-5.2 1.2,-0.9 2.5,-1.7 3.7,-2.5 1.9,-1.4 3.7,-2.7 5.7,-3.9 2.4,-1.5 4.8,-2.8 7.3,-4.1 0.9,-0.5 1.7,-1 2.6,-1.4 3.6,-1.8 7.2,-3.3 10.9,-4.7 0.1,-0.1 0.2,-0.1 0.2,-0.1 3.6,-1.3 7.3,-2.5 11,-3.5 0.2,0 0.3,-0.1 0.5,-0.1 0.5,-0.2 1,-0.2 1.4,-0.3 3.9,-1 7.9,-1.7 11.9,-2.3 1.2,-0.2 2.5,-0.4 3.7,-0.5 4.1,-0.5 8.2,-0.8 12.3,-0.8 0.4,0 0.8,-0.1 1.2,-0.1 3.9,0 7.8,0.2 11.6,0.6 0.6,0.1 1.3,0.2 1.9,0.3 3.1,0.3 6.2,0.8 9.2,1.4 1.1,0.2 2.1,0.4 3.2,0.6 2.6,0.6 5.2,1.3 7.8,2.1 1.2,0.3 2.4,0.6 3.5,1 2.8,0.9 5.6,1.9 8.3,3.1 1.3,0.5 2.7,1.1 4,1.7 2.6,1.2 5.3,2.5 7.8,3.9 1.4,0.7 2.8,1.5 4.1,2.4 2,1.1 3.9,2.3 5.7,3.6 1.3,0.8 2.5,1.7 3.8,2.6 2.3,1.7 4.6,3.5 6.8,5.4 0.7,0.6 1.3,1.1 1.9,1.6 3,2.6 5.9,5.5 8.6,8.4 0.1,0.1 0.2,0.3 0.4,0.4 381.4,417.6 592.9,959.2 595.6,1525.1 2.6,554.1 -195.2,1086.8 -557.6,1503.9 7.2,128.6 10.9,257.9 10.9,387.5 0,838.9 -149.8,1650.5 -433.3,2348.6 -0.3,0.9 -0.6,1.7 -1,2.6 -2.1,5.2 -4.2,10.5 -6.4,15.8 -284.1,692 -683.7,1234.5 -1155.5,1568.8 -41.5,29.5 -97.2,29.4 -138.7,0 -471.83,-334.3 -871.4,-876.8 -1155.52,-1568.8 -2.09,-5.1 -4.1,-10.3 -6.18,-15.4 -0.57,-1.3 -1.07,-2.6 -1.6,-4 -283.19,-697.9 -432.88,-1509 -432.88,-2347.6 0,-131.3 3.81,-262.2 11.19,-392.3 -359.72,-416.4 -556.01,-947.1 -553.38,-1499.1 2.68,-565.9 214.21,-1107.5 595.6,-1525.1 0.12,-0.1 0.26,-0.2 0.38,-0.4 2.73,-2.9 5.58,-5.8 8.58,-8.4 0.56,-0.5 1.16,-1 1.73,-1.5 2.29,-1.9 4.63,-3.8 7.05,-5.5 1.2,-0.9 2.42,-1.8 3.65,-2.6 1.91,-1.3 3.86,-2.5 5.84,-3.7 1.32,-0.8 2.64,-1.6 3.99,-2.3 2.66,-1.5 5.38,-2.8 8.14,-4 1.18,-0.6 2.37,-1.1 3.56,-1.6 2.78,-1.1 5.59,-2.2 8.46,-3.1 1.13,-0.4 2.28,-0.7 3.43,-1 2.61,-0.8 5.23,-1.5 7.89,-2.1 1.05,-0.2 2.08,-0.4 3.13,-0.6 3.05,-0.6 6.13,-1.1 9.24,-1.4 0.63,-0.1 1.26,-0.2 1.89,-0.3 3.83,-0.4 7.67,-0.6 11.56,-0.6 0.42,0 0.85,0.1 1.27,0.1 4.09,0 8.17,0.3 12.24,0.8 1.27,0.1 2.53,0.3 3.79,0.5 3.97,0.6 7.91,1.3 11.82,2.3 0.47,0.1 0.94,0.1 1.41,0.3 0.19,0 0.37,0.1 0.56,0.1 3.68,1 7.32,2.1 10.91,3.5 0.09,0 0.18,0 0.27,0.1 3.69,1.4 7.33,2.9 10.9,4.7 0.83,0.4 1.6,0.9 2.41,1.3 2.54,1.3 5.06,2.7 7.52,4.2 1.91,1.2 3.71,2.5 5.53,3.8 1.28,0.9 2.6,1.7 3.85,2.6 2.1,1.6 4.08,3.4 6.07,5.1 0.81,0.7 1.66,1.3 2.46,2 0.11,0.1 0.21,0.3 0.33,0.4 2.21,2 4.28,4.2 6.32,6.4 0.73,0.7 1.52,1.5 2.22,2.2 1.49,1.7 2.83,3.5 4.21,5.3 8.12,10.2 14.4,21.4 18.71,33.3 0.17,0.5 0.4,1 0.57,1.4 0.63,1.9 1.1,3.7 1.64,5.6 0.58,1.9 1.23,3.8 1.7,5.8 0.1,0.3 0.14,0.7 0.22,1.1 2.92,12.5 3.76,25.6 2.45,38.8 -0.21,2.1 -0.35,4.2 -0.67,6.3 -0.17,1.2 -0.46,2.3 -0.66,3.4 -0.52,2.9 -1.07,5.7 -1.79,8.6 -0.05,0.1 -0.06,0.3 -0.11,0.5 -27.45,104.6 -41.36,213.1 -41.36,322.5 0,241.9 69.54,478.2 198.01,680.5 73.71,-186.7 156.48,-364.8 247.18,-531.1 2.62,-5 5.63,-9.7 8.9,-14.2 0.71,-1 1.42,-1.9 2.16,-2.9 2.55,-3.3 5.26,-6.5 8.15,-9.5 0.57,-0.6 1.09,-1.3 1.66,-1.9 3.31,-3.3 6.84,-6.4 10.51,-9.3 1.07,-0.9 2.18,-1.7 3.28,-2.5 2.95,-2.2 6,-4.2 9.16,-6.1 1.01,-0.6 2,-1.3 3.03,-1.9 8.33,-4.7 17.29,-8.5 26.72,-11.1 1.07,-0.3 2.15,-0.6 3.23,-0.9 3.65,-0.9 7.37,-1.6 11.14,-2.2 1.26,-0.2 2.51,-0.4 3.77,-0.6 4.5,-0.5 9.05,-0.8 13.69,-0.9 0.27,0 0.53,0 0.81,0 0.1,0 0.21,0 0.31,0 h 189.12 c -72.56,-272.2 -67.3,-560 14.63,-828.6 -26.29,2.2 -52.78,3.3 -79.4,3.3 -326.02,0 -625.59,-168.9 -795.95,-439.7 -142.92,76.3 -306,119.7 -479.05,119.7 -211.2,0 -413.85,-64 -586.04,-185 C 7454.51,7184.7 7337.38,7043.7 7262.2,6879.2 7051.22,6831 6859.6,6715.9 6717.01,6550.4 6557.72,6365.5 6470,6129.2 6470,5884.8 c 0,-237.4 81.09,-461.5 225.27,-640 H 5120 c -66.27,0 -120,-53.7 -120,-120 0,-66.3 53.73,-120 120,-120 h 1887.8 964.4 4635.6 964.4 1787.8 c 66.3,0 120,53.7 120,120 0,66.3 -53.7,120 -120,120" /></g></g></svg>